<?xml version="1.0" encoding="UTF-8"?><svg id="Layer_2" xmlns="http://www.w3.org/2000/svg" xmlns:xlink="http://www.w3.org/1999/xlink" viewBox="0 0 194.17 237.04"><defs><style>.cls-1{fill:none;}.cls-2{clip-path:url(#clippath);}.cls-3{fill:#fefefe;}.cls-4{fill:#737373;}.cls-5{fill:#424242;}.cls-6{fill:#838b91;}.cls-7{fill:#7bacc3;}</style><clipPath id="clippath"><rect class="cls-1" x="87.85" y="96.82" width="18" height="27"/></clipPath></defs><g id="Layer_1-2"><g><path class="cls-7" d="M155.35,58.5c0-1.92-.09-3.83-.28-5.73s-.47-3.8-.84-5.68c-.38-1.88-.84-3.73-1.4-5.57-.56-1.84-1.2-3.64-1.93-5.41-.73-1.77-1.55-3.5-2.45-5.19-.91-1.69-1.89-3.33-2.95-4.92s-2.2-3.13-3.42-4.61c-1.21-1.48-2.5-2.9-3.85-4.25-1.35-1.35-2.77-2.64-4.26-3.85-1.48-1.22-3.02-2.36-4.61-3.42s-3.23-2.05-4.92-2.95c-1.69-.9-3.42-1.72-5.19-2.45-1.77-.73-3.57-1.38-5.41-1.93-1.83-.56-3.69-1.02-5.57-1.4s-3.77-.66-5.68-.84-3.82-.28-5.73-.28-3.83,.09-5.73,.28-3.8,.47-5.68,.84c-1.88,.38-3.74,.84-5.57,1.4-1.83,.55-3.64,1.2-5.4,1.93-1.77,.73-3.5,1.55-5.19,2.45-.21,.12-.42,.24-.63,.36,1.29,.04,2.55,.33,2.75,1.13,.51,2.04,1.01,4.74,3.81,3.73,2.81-1.02,9.9-1.81,13.21-4.36s7.29-2.56,10.6-1.54c3.32,1.02,12.6,.74,10.56,3.79-2.04,3.06-5.93,2.69-7.96,6.26-2.04,3.57,.56,5.93,3.35,5.93s5.56,.44,7.34-2.36c1.79-2.8-1.24-8.01,1.06-7.66,2.29,.34,4.8,2.81,6.59,6.64,1.78,3.82,4.58,1.53,5.6,3.82,1.02,2.29,6.62,6.62,3.83,5.86-2.81-.77-5.61-1.27-6.38,1.53-.77,2.8,1.27,5.6-.77,5.35-2.04-.26-2.8,.29-5.61,.01-2.8-.27-4.33-2.05-6.62,1.77-2.29,3.82-4.08,6.37-5.09,8.16-1.02,1.79-2.55,2.8-1.79,6.37,.77,3.57-2.04,2.55-2.04-.51s-1.78-3.57-4.07-3.06c-2.29,.51-5.86,1.02-5.6,3.57,.26,2.55-1.02,5.6,1.02,7.64,2.04,2.05,4.32-.24,5.6,.52,1.28,.77,4.96,.07,3.68,1.35-1.28,1.27-5.72,2.86-3.17,4.91,2.55,2.04,5.12,2.69,6.15,2.95,1.02,.26,.2-2.52,3.52-3.79,3.31-1.28,8.47-4.19,9.75-1.9,1.27,2.29,1.1,1.93,5.69,2.44,4.08,.45,5.51,1.61,7.21,4.92,8.89-4.34,17.55-8.02,24.44-10.73,.01-.5,.04-1,.04-1.5Z"/><path class="cls-7" d="M98.47,79.62c0-1.89,3.05-5.98,4.62-7.98-1.2-.58-3.18-2.45-4.35-2.84-1.53-.52-5.02-5.39-7.99-5.9-2.97-.51-4.43-2.27-6.72-4.06-2.3-1.78-7.9-4.33-7.65-7.13,.26-2.8-5.61-5.1-6.62-5.1s-3.31,0-5.35-3.57c-2.04-3.57-5.6-7.14-4.58-9.68,1.02-2.55,1.27-5.61,.76-8.41-.51-2.8-4.33-3.82-5.09-3.06-.71,.71-4.27,3.44-5.18,1.2-.73,.95-1.43,1.92-2.1,2.92-1.07,1.59-2.05,3.23-2.95,4.92-.9,1.69-1.72,3.42-2.45,5.19-.73,1.77-1.38,3.57-1.94,5.41-.55,1.83-1.02,3.69-1.39,5.57-.38,1.88-.66,3.77-.84,5.68s-.28,3.82-.28,5.73c0,.71,.03,1.42,.05,2.12,5.76,2.3,12.58,5.21,19.69,8.58,9.01,4.27,18.45,9.27,26.73,14.71,4.1,2.7,7.9,5.51,11.26,8.43,2.09-1.82,4.37-3.6,6.78-5.33-1.4-1.25-4.38-4.98-4.38-7.39Z"/></g><path class="cls-4" d="M185.48,103.81s-14.58-8.11-40.6-6.79c-3.15,.16-6.13,.38-8.97,.64,.29-.03,.58-.07,.88-.1,23.68-2.39,47.39,.76,47.39,.76,0,0,.33-1.76-2.14-2.55-6.4-2.06-22.41-3.64-43.33-1.98-8.88,.71-16.18,2.05-22.29,3.72,19.81-6.05,45.44-8.56,60.53-9.22,.77-.04,1.24-.82,1.06-1.77-.18-.95-.97-1.7-1.76-1.66-14.33,.62-38.69,2.71-58.08,8.01,17.76-6.98,39.12-11.71,52.39-13.94,.76-.12,1.1-.96,.78-1.88-.32-.91-1.22-1.56-1.99-1.43-13.5,2.27-35.89,6.99-53.93,14.07,15.57-10.04,34.9-18.6,47.14-23.28,.71-.27,.85-1.16,.32-1.98-.54-.83-1.57-1.28-2.3-1.01-17.05,6.52-48.84,20.53-63.73,35.47-14.89-14.94-46.68-28.95-63.74-35.47-.72-.28-1.76,.18-2.29,1.01-.54,.83-.4,1.71,.32,1.98,12.24,4.68,31.56,13.24,47.14,23.29-18.04-7.07-40.43-11.8-53.93-14.07-.77-.13-1.67,.52-1.99,1.43-.33,.92,.03,1.76,.78,1.88,13.27,2.23,34.63,6.96,52.38,13.94-19.38-5.3-43.74-7.39-58.07-8.01-.78-.04-1.57,.71-1.76,1.66-.18,.95,.29,1.73,1.06,1.77,15.1,.66,40.75,3.17,60.55,9.22-6.11-1.68-13.43-3.02-22.31-3.73-20.92-1.66-36.93-.08-43.33,1.98-2.46,.79-2.13,2.55-2.13,2.55,0,0,23.71-3.15,47.39-.76,.29,.03,.57,.07,.86,.1-2.83-.26-5.81-.48-8.95-.64-26.03-1.32-40.61,6.79-40.61,6.79l77.31,4.24c1.22,4.99,5.83,8.7,11.33,8.7s10.11-3.71,11.33-8.7l77.3-4.24Z"/><path class="cls-5" d="M185.48,103.19H108.34v4.05h.02c-.54,4.49-5.69,9.56-11.51,9.56s-10.64-4.15-11.51-9.56c0,0,.01,0,.01,0-.11-1.71,0-4.05,0-4.05H8.21c-3.48,0-6.31,2.33-6.31,5.21v.58c0,2.88,2.83,5.21,6.31,5.21H82.7c1.26,5.48,7.11,9.63,14.15,9.63s12.88-4.15,14.15-9.63h74.48c3.48,0,6.31-2.33,6.31-5.21v-.58c0-2.88-2.83-5.21-6.31-5.21Z"/><g class="cls-2"><path class="cls-3" d="M105.85,103.06h-7.41v-6.23h-3.18v6.23h-7.41v3.11h7.41v17.65h3.18v-17.65h7.41v-3.11Z"/></g><g><path class="cls-7" d="M.99,193.39v-49.54H11.36v49.54H.99Z"/><path class="cls-7" d="M53.13,185.93c6.25,0,10.59-3.14,13.04-9.42l9.02,3.42c-1.95,4.78-4.8,8.33-8.56,10.67-3.75,2.33-8.25,3.5-13.5,3.5-7.97,0-14.14-2.26-18.48-6.77-4.35-4.51-6.52-10.82-6.52-18.94s2.09-14.36,6.29-18.73c4.19-4.36,10.28-6.54,18.25-6.54,5.8,0,10.53,1.17,14.19,3.5,3.67,2.33,6.23,5.76,7.71,10.27l-9.15,2.5c-.77-2.48-2.28-4.46-4.54-5.92-2.27-1.47-4.93-2.21-8-2.21-4.7,0-8.26,1.46-10.69,4.38-2.42,2.91-3.63,7.16-3.63,12.75s1.24,10.04,3.73,13.04c2.5,3,6.11,4.5,10.83,4.5Z"/><path class="cls-7" d="M114.12,185.93c6.25,0,10.59-3.14,13.04-9.42l9.02,3.42c-1.95,4.78-4.8,8.33-8.56,10.67-3.75,2.33-8.25,3.5-13.5,3.5-7.97,0-14.14-2.26-18.48-6.77-4.35-4.51-6.52-10.82-6.52-18.94s2.09-14.36,6.29-18.73c4.19-4.36,10.28-6.54,18.25-6.54,5.8,0,10.53,1.17,14.19,3.5,3.67,2.33,6.23,5.76,7.71,10.27l-9.15,2.5c-.77-2.48-2.28-4.46-4.54-5.92-2.27-1.47-4.93-2.21-8-2.21-4.7,0-8.26,1.46-10.69,4.38-2.42,2.91-3.63,7.16-3.63,12.75s1.24,10.04,3.73,13.04c2.5,3,6.11,4.5,10.83,4.5Z"/><path class="cls-7" d="M192.71,159.53c0,3.18-.73,6.03-2.19,8.54-1.45,2.52-3.52,4.46-6.23,5.83-2.71,1.36-5.93,2.04-9.65,2.04h-12.31v17.44h-10.38v-49.54h22.25c5.93,0,10.49,1.37,13.69,4.1,3.21,2.72,4.81,6.58,4.81,11.58Zm-10.44,.17c0-5.19-3.07-7.79-9.21-7.79h-10.73v16.06h11c2.86,0,5.06-.71,6.6-2.13,1.55-1.42,2.33-3.46,2.33-6.15Z"/></g><g><path class="cls-6" d="M1.1,218.46v-8.71h1.85v8.71H1.1Z"/><path class="cls-6" d="M13.84,218.46h-2.35l-3.79-6.59h-.05c.08,1.16,.11,1.99,.11,2.49v4.1h-1.65v-8.71h2.33l3.78,6.52h.04c-.06-1.13-.09-1.93-.09-2.4v-4.12h1.66v8.71Z"/><path class="cls-6" d="M20.37,218.46h-1.85v-7.17h-2.37v-1.54h6.58v1.54h-2.36v7.17Z"/><path class="cls-6" d="M30.06,218.46h-5.02v-8.71h5.02v1.51h-3.17v1.91h2.95v1.51h-2.95v2.25h3.17v1.53Z"/><path class="cls-6" d="M34.7,215.12v3.34h-1.85v-8.71h2.54c1.18,0,2.06,.21,2.63,.65,.57,.43,.85,1.08,.85,1.96,0,.51-.14,.97-.42,1.37-.28,.4-.68,.71-1.2,.94,1.31,1.96,2.17,3.22,2.56,3.79h-2.05l-2.08-3.34h-.98Zm0-1.5h.6c.58,0,1.01-.1,1.29-.29s.42-.5,.42-.92-.14-.71-.43-.88-.72-.26-1.32-.26h-.56v2.35Z"/><path class="cls-6" d="M49.61,218.46h-2.35l-3.79-6.59h-.05c.08,1.16,.11,1.99,.11,2.49v4.1h-1.65v-8.71h2.33l3.78,6.52h.04c-.06-1.13-.09-1.93-.09-2.4v-4.12h1.66v8.71Z"/><path class="cls-6" d="M58.11,218.46l-.63-2.07h-3.17l-.63,2.07h-1.99l3.07-8.75h2.26l3.08,8.75h-1.99Zm-1.07-3.62c-.58-1.88-.91-2.94-.99-3.19-.07-.25-.13-.44-.16-.58-.13,.51-.51,1.77-1.13,3.77h2.27Z"/><path class="cls-6" d="M65.53,218.46h-1.85v-7.17h-2.37v-1.54h6.58v1.54h-2.36v7.17Z"/><path class="cls-6" d="M70.21,218.46v-8.71h1.85v8.71h-1.85Z"/><path class="cls-6" d="M83.13,214.1c0,1.44-.36,2.55-1.07,3.32-.71,.78-1.74,1.16-3.07,1.16s-2.36-.39-3.07-1.16c-.71-.77-1.07-1.89-1.07-3.34s.36-2.56,1.08-3.32,1.74-1.15,3.08-1.15,2.36,.38,3.07,1.16,1.06,1.88,1.06,3.32Zm-6.36,0c0,.97,.19,1.71,.55,2.2,.37,.49,.92,.74,1.66,.74,1.47,0,2.21-.98,2.21-2.94s-.73-2.94-2.2-2.94c-.74,0-1.29,.25-1.66,.74-.37,.49-.56,1.23-.56,2.2Z"/><path class="cls-6" d="M93.64,218.46h-2.35l-3.79-6.59h-.05c.08,1.16,.11,1.99,.11,2.49v4.1h-1.65v-8.71h2.33l3.78,6.52h.04c-.06-1.13-.09-1.93-.09-2.4v-4.12h1.66v8.71Z"/><path class="cls-6" d="M102.14,218.46l-.63-2.07h-3.17l-.63,2.07h-1.99l3.07-8.75h2.26l3.08,8.75h-1.99Zm-1.07-3.62c-.58-1.88-.91-2.94-.99-3.19-.07-.25-.13-.44-.16-.58-.13,.51-.51,1.77-1.13,3.77h2.27Z"/><path class="cls-6" d="M106.2,218.46v-8.71h1.85v7.18h3.53v1.53h-5.38Z"/><path class="cls-6" d="M121.91,211.17c-.69,0-1.23,.26-1.61,.78-.38,.52-.57,1.25-.57,2.18,0,1.94,.73,2.91,2.19,2.91,.61,0,1.35-.15,2.22-.46v1.55c-.71,.3-1.51,.45-2.39,.45-1.27,0-2.24-.38-2.91-1.15s-1.01-1.87-1.01-3.31c0-.91,.17-1.7,.49-2.38,.33-.68,.8-1.2,1.42-1.57s1.34-.54,2.17-.54,1.7,.2,2.55,.61l-.6,1.5c-.33-.15-.65-.29-.98-.41-.33-.12-.65-.17-.97-.17Z"/><path class="cls-6" d="M134.87,214.1c0,1.44-.36,2.55-1.07,3.32-.71,.78-1.74,1.16-3.07,1.16s-2.36-.39-3.07-1.16c-.71-.77-1.07-1.89-1.07-3.34s.36-2.56,1.08-3.32,1.74-1.15,3.08-1.15,2.36,.38,3.07,1.16,1.06,1.88,1.06,3.32Zm-6.36,0c0,.97,.19,1.71,.55,2.2,.37,.49,.92,.74,1.66,.74,1.47,0,2.21-.98,2.21-2.94s-.73-2.94-2.2-2.94c-.74,0-1.29,.25-1.66,.74-.37,.49-.56,1.23-.56,2.2Z"/><path class="cls-6" d="M142.98,218.46l-.63-2.07h-3.17l-.63,2.07h-1.99l3.07-8.75h2.26l3.08,8.75h-1.99Zm-1.07-3.62c-.58-1.88-.91-2.94-.99-3.19-.07-.25-.13-.44-.16-.58-.13,.51-.51,1.77-1.13,3.77h2.27Z"/><path class="cls-6" d="M147.04,218.46v-8.71h1.85v7.18h3.53v1.53h-5.38Z"/><path class="cls-6" d="M154.91,218.46v-8.71h1.85v8.71h-1.85Z"/><path class="cls-6" d="M163.29,218.46h-1.85v-7.17h-2.37v-1.54h6.58v1.54h-2.36v7.17Z"/><path class="cls-6" d="M167.97,218.46v-8.71h1.85v8.71h-1.85Z"/><path class="cls-6" d="M180.89,214.1c0,1.44-.36,2.55-1.07,3.32-.71,.78-1.74,1.16-3.07,1.16s-2.36-.39-3.07-1.16c-.71-.77-1.07-1.89-1.07-3.34s.36-2.56,1.08-3.32,1.74-1.15,3.08-1.15,2.36,.38,3.07,1.16,1.06,1.88,1.06,3.32Zm-6.36,0c0,.97,.19,1.71,.55,2.2,.37,.49,.92,.74,1.66,.74,1.47,0,2.21-.98,2.21-2.94s-.73-2.94-2.2-2.94c-.74,0-1.29,.25-1.66,.74-.37,.49-.56,1.23-.56,2.2Z"/><path class="cls-6" d="M191.4,218.46h-2.35l-3.79-6.59h-.05c.08,1.16,.11,1.99,.11,2.49v4.1h-1.65v-8.71h2.33l3.78,6.52h.04c-.06-1.13-.09-1.93-.09-2.4v-4.12h1.66v8.71Z"/></g><g><path class="cls-6" d="M10.08,228.31c0,1.58-.39,2.8-1.18,3.65-.79,.85-1.91,1.28-3.38,1.28s-2.59-.43-3.38-1.28c-.79-.85-1.18-2.07-1.18-3.66s.39-2.81,1.18-3.65c.79-.84,1.92-1.26,3.39-1.26s2.59,.42,3.37,1.27c.78,.85,1.17,2.06,1.17,3.65Zm-6.98,0c0,1.07,.2,1.87,.61,2.41,.41,.54,1.01,.81,1.82,.81,1.62,0,2.43-1.08,2.43-3.23s-.8-3.23-2.41-3.23c-.81,0-1.42,.27-1.83,.81-.41,.54-.62,1.35-.62,2.42Z"/><path class="cls-6" d="M15.93,233.11h-2v-9.57h5.48v1.66h-3.49v2.47h3.25v1.66h-3.25v3.78Z"/><path class="cls-6" d="M32.59,225.09c-.76,0-1.35,.29-1.77,.86-.42,.57-.63,1.37-.63,2.4,0,2.13,.8,3.2,2.4,3.2,.67,0,1.48-.17,2.44-.5v1.7c-.79,.33-1.66,.49-2.63,.49-1.39,0-2.46-.42-3.19-1.27-.74-.84-1.11-2.06-1.11-3.63,0-1,.18-1.87,.54-2.61,.36-.75,.88-1.32,1.56-1.72,.68-.4,1.47-.6,2.39-.6s1.86,.22,2.8,.67l-.65,1.65c-.36-.17-.72-.32-1.08-.44-.36-.13-.72-.19-1.07-.19Z"/><path class="cls-6" d="M46.78,233.11h-2.02v-4.13h-3.79v4.13h-2.03v-9.57h2.03v3.75h3.79v-3.75h2.02v9.57Z"/><path class="cls-6" d="M53.1,229.44v3.67h-2.03v-9.57h2.79c1.3,0,2.26,.24,2.89,.71,.62,.47,.94,1.19,.94,2.16,0,.56-.16,1.06-.46,1.5s-.75,.78-1.32,1.03c1.44,2.15,2.38,3.54,2.81,4.17h-2.25l-2.28-3.67h-1.08Zm0-1.65h.65c.64,0,1.11-.11,1.42-.32,.3-.21,.46-.55,.46-1.01s-.16-.78-.47-.97c-.31-.19-.79-.29-1.45-.29h-.62v2.58Z"/><path class="cls-6" d="M61.79,233.11v-9.57h2.03v9.57h-2.03Z"/><path class="cls-6" d="M73.75,230.45c0,.86-.31,1.54-.93,2.04-.62,.5-1.49,.75-2.59,.75-1.02,0-1.92-.19-2.71-.58v-1.88c.65,.29,1.19,.49,1.64,.61,.45,.12,.86,.18,1.23,.18,.45,0,.79-.08,1.02-.25,.24-.17,.36-.42,.36-.76,0-.19-.05-.35-.16-.5-.1-.15-.26-.29-.46-.42-.2-.14-.62-.35-1.24-.65-.58-.27-1.02-.54-1.31-.79-.29-.25-.53-.55-.7-.88-.17-.34-.26-.73-.26-1.18,0-.85,.29-1.51,.86-2,.57-.48,1.37-.73,2.38-.73,.5,0,.97,.06,1.42,.18,.45,.12,.92,.28,1.42,.5l-.65,1.58c-.51-.21-.93-.36-1.27-.44-.33-.08-.66-.12-.99-.12-.38,0-.68,.09-.88,.27s-.31,.41-.31,.7c0,.18,.04,.33,.12,.47s.21,.26,.4,.39c.18,.12,.61,.35,1.29,.67,.89,.43,1.51,.86,1.84,1.29,.33,.43,.5,.96,.5,1.58Z"/><path class="cls-6" d="M81.05,233.11h-2.03v-7.88h-2.6v-1.69h7.22v1.69h-2.6v7.88Z"/><path class="cls-6" d="M87,233.11v-9.57h2.03v9.57h-2.03Z"/><path class="cls-6" d="M99.16,233.11l-.69-2.28h-3.49l-.69,2.28h-2.19l3.38-9.61h2.48l3.39,9.61h-2.19Zm-1.18-3.98c-.64-2.06-1-3.23-1.08-3.5-.08-.27-.14-.48-.17-.64-.14,.56-.56,1.94-1.24,4.14h2.49Z"/><path class="cls-6" d="M112.92,233.11h-2.58l-4.16-7.24h-.06c.08,1.28,.12,2.19,.12,2.73v4.5h-1.81v-9.57h2.56l4.16,7.16h.05c-.07-1.24-.1-2.12-.1-2.64v-4.53h1.83v9.57Z"/><path class="cls-6" d="M129.16,226.53c0,1.03-.32,1.82-.96,2.36-.64,.55-1.56,.82-2.75,.82h-.87v3.4h-2.03v-9.57h3.06c1.16,0,2.04,.25,2.65,.75,.6,.5,.91,1.24,.91,2.23Zm-4.58,1.52h.67c.62,0,1.09-.12,1.4-.37,.31-.25,.46-.61,.46-1.08s-.13-.83-.39-1.05-.67-.34-1.22-.34h-.92v2.84Z"/><path class="cls-6" d="M138.7,233.11l-.69-2.28h-3.49l-.69,2.28h-2.19l3.38-9.61h2.48l3.39,9.61h-2.19Zm-1.18-3.98c-.64-2.06-1-3.23-1.08-3.5-.08-.27-.14-.48-.17-.64-.14,.56-.56,1.94-1.24,4.14h2.49Z"/><path class="cls-6" d="M149.61,230.45c0,.86-.31,1.54-.93,2.04-.62,.5-1.49,.75-2.59,.75-1.02,0-1.92-.19-2.71-.58v-1.88c.65,.29,1.19,.49,1.64,.61,.45,.12,.86,.18,1.23,.18,.45,0,.79-.08,1.02-.25,.24-.17,.36-.42,.36-.76,0-.19-.05-.35-.16-.5-.1-.15-.26-.29-.46-.42-.2-.14-.62-.35-1.24-.65-.58-.27-1.02-.54-1.31-.79-.29-.25-.53-.55-.7-.88-.17-.34-.26-.73-.26-1.18,0-.85,.29-1.51,.86-2,.57-.48,1.37-.73,2.38-.73,.5,0,.97,.06,1.42,.18,.45,.12,.92,.28,1.42,.5l-.65,1.58c-.51-.21-.93-.36-1.27-.44-.33-.08-.66-.12-.99-.12-.38,0-.68,.09-.88,.27s-.31,.41-.31,.7c0,.18,.04,.33,.12,.47s.21,.26,.4,.39c.18,.12,.61,.35,1.29,.67,.89,.43,1.51,.86,1.84,1.29,.33,.43,.5,.96,.5,1.58Z"/><path class="cls-6" d="M156.91,233.11h-2.03v-7.88h-2.6v-1.69h7.22v1.69h-2.6v7.88Z"/><path class="cls-6" d="M171.54,228.31c0,1.58-.39,2.8-1.18,3.65-.79,.85-1.91,1.28-3.38,1.28s-2.59-.43-3.38-1.28c-.79-.85-1.18-2.07-1.18-3.66s.39-2.81,1.18-3.65c.79-.84,1.92-1.26,3.39-1.26s2.59,.42,3.37,1.27c.78,.85,1.17,2.06,1.17,3.65Zm-6.98,0c0,1.07,.2,1.87,.61,2.41,.41,.54,1.01,.81,1.82,.81,1.62,0,2.43-1.08,2.43-3.23s-.8-3.23-2.41-3.23c-.81,0-1.42,.27-1.83,.81-.41,.54-.62,1.35-.62,2.42Z"/><path class="cls-6" d="M177.43,229.44v3.67h-2.03v-9.57h2.79c1.3,0,2.26,.24,2.89,.71,.62,.47,.94,1.19,.94,2.16,0,.56-.16,1.06-.46,1.5s-.75,.78-1.32,1.03c1.44,2.15,2.38,3.54,2.81,4.17h-2.25l-2.28-3.67h-1.08Zm0-1.65h.65c.64,0,1.11-.11,1.42-.32,.3-.21,.46-.55,.46-1.01s-.16-.78-.47-.97c-.31-.19-.79-.29-1.45-.29h-.62v2.58Z"/><path class="cls-6" d="M191.77,230.45c0,.86-.31,1.54-.93,2.04-.62,.5-1.49,.75-2.59,.75-1.02,0-1.92-.19-2.71-.58v-1.88c.65,.29,1.19,.49,1.64,.61,.45,.12,.86,.18,1.23,.18,.45,0,.79-.08,1.02-.25,.24-.17,.36-.42,.36-.76,0-.19-.05-.35-.16-.5-.1-.15-.26-.29-.46-.42-.2-.14-.62-.35-1.24-.65-.58-.27-1.02-.54-1.31-.79-.29-.25-.53-.55-.7-.88-.17-.34-.26-.73-.26-1.18,0-.85,.29-1.51,.86-2,.57-.48,1.37-.73,2.38-.73,.5,0,.97,.06,1.42,.18,.45,.12,.92,.28,1.42,.5l-.65,1.58c-.51-.21-.93-.36-1.27-.44-.33-.08-.66-.12-.99-.12-.38,0-.68,.09-.88,.27s-.31,.41-.31,.7c0,.18,.04,.33,.12,.47s.21,.26,.4,.39c.18,.12,.61,.35,1.29,.67,.89,.43,1.51,.86,1.84,1.29,.33,.43,.5,.96,.5,1.58Z"/></g></g></svg>