<?xml version="1.0" encoding="UTF-8"?><svg id="Layer_2" xmlns="http://www.w3.org/2000/svg" xmlns:xlink="http://www.w3.org/1999/xlink" viewBox="0 0 413.25 37.56"><defs><style>.cls-1{clip-path:url(#clippath);}.cls-2{fill:#fff;}</style><clipPath id="clippath"><rect class="cls-2" x="26.07" y="29.37" width="5.46" height="8.19"/></clipPath></defs><g id="Layer_1-2"><g><g><path class="cls-2" d="M46.55,17.75c0-.58-.03-1.16-.09-1.74s-.14-1.15-.26-1.72c-.11-.57-.25-1.13-.42-1.69-.17-.56-.36-1.1-.59-1.64-.22-.54-.47-1.06-.74-1.58-.27-.51-.57-1.01-.9-1.49s-.67-.95-1.04-1.4c-.37-.45-.76-.88-1.17-1.29-.41-.41-.84-.8-1.29-1.17-.45-.37-.91-.72-1.4-1.04s-.98-.62-1.49-.9c-.51-.27-1.04-.52-1.58-.74-.54-.22-1.08-.42-1.64-.59-.56-.17-1.12-.31-1.69-.42s-1.14-.2-1.72-.26-1.16-.09-1.74-.09-1.16,.03-1.74,.09-1.15,.14-1.72,.26c-.57,.11-1.13,.25-1.69,.42-.56,.17-1.1,.36-1.64,.59-.54,.22-1.06,.47-1.58,.74-.07,.03-.13,.07-.19,.11,.39,.01,.77,.1,.83,.34,.15,.62,.31,1.44,1.16,1.13,.85-.31,3-.55,4.01-1.32s2.21-.78,3.22-.47c1.01,.31,3.82,.22,3.2,1.15-.62,.93-1.8,.82-2.41,1.9-.62,1.08,.17,1.8,1.02,1.8s1.69,.13,2.23-.72c.54-.85-.38-2.43,.32-2.32,.7,.1,1.46,.85,2,2.01,.54,1.16,1.39,.46,1.7,1.16,.31,.7,2.01,2.01,1.16,1.78-.85-.23-1.7-.39-1.93,.46-.23,.85,.38,1.7-.23,1.62-.62-.08-.85,.09-1.7,0-.85-.08-1.31-.62-2.01,.54-.7,1.16-1.24,1.93-1.55,2.47-.31,.54-.77,.85-.54,1.93,.23,1.08-.62,.77-.62-.15s-.54-1.08-1.24-.93c-.7,.15-1.78,.31-1.7,1.08,.08,.77-.31,1.7,.31,2.32,.62,.62,1.31-.07,1.7,.16,.39,.23,1.5,.02,1.12,.41-.39,.39-1.73,.87-.96,1.49,.77,.62,1.55,.82,1.87,.89,.31,.08,.06-.76,1.07-1.15,1-.39,2.57-1.27,2.96-.58,.39,.7,.33,.59,1.73,.74,1.24,.14,1.67,.49,2.19,1.49,2.7-1.32,5.32-2.43,7.41-3.26,0-.15,.01-.3,.01-.46Z"/><path class="cls-2" d="M29.29,24.15c0-.57,.93-1.82,1.4-2.42-.36-.18-.97-.74-1.32-.86-.46-.16-1.52-1.63-2.43-1.79-.9-.15-1.34-.69-2.04-1.23-.7-.54-2.4-1.31-2.32-2.16,.08-.85-1.7-1.55-2.01-1.55s-1,0-1.62-1.08c-.62-1.08-1.7-2.16-1.39-2.94,.31-.77,.39-1.7,.23-2.55-.15-.85-1.31-1.16-1.55-.93-.22,.22-1.3,1.04-1.57,.36-.22,.29-.43,.58-.64,.89-.32,.48-.62,.98-.9,1.49-.27,.51-.52,1.04-.74,1.58-.22,.54-.42,1.08-.59,1.64-.17,.56-.31,1.12-.42,1.69-.11,.57-.2,1.14-.26,1.72s-.09,1.16-.09,1.74c0,.22,0,.43,.02,.64,1.75,.7,3.82,1.58,5.97,2.6,2.73,1.3,5.6,2.81,8.11,4.46,1.24,.82,2.4,1.67,3.41,2.56,.63-.55,1.33-1.09,2.06-1.62-.43-.38-1.33-1.51-1.33-2.24Z"/></g><path class="cls-2" d="M55.69,31.49s-4.42-2.46-12.32-2.06c-.95,.05-1.86,.11-2.72,.19,.09,0,.18-.02,.27-.03,7.18-.73,14.38,.23,14.38,.23,0,0,.1-.53-.65-.77-1.94-.63-6.8-1.1-13.14-.6-2.69,.21-4.91,.62-6.76,1.13,6.01-1.83,13.78-2.6,18.36-2.8,.23-.01,.38-.25,.32-.54-.06-.29-.3-.52-.53-.5-4.35,.19-11.74,.82-17.62,2.43,5.39-2.12,11.87-3.55,15.89-4.23,.23-.04,.33-.29,.24-.57-.1-.28-.37-.47-.6-.43-4.09,.69-10.89,2.12-16.36,4.27,4.72-3.05,10.59-5.64,14.3-7.06,.21-.08,.26-.35,.1-.6-.16-.25-.48-.39-.7-.3-5.17,1.98-14.82,6.23-19.33,10.76-4.52-4.53-14.16-8.78-19.33-10.76-.22-.08-.53,.05-.7,.3-.16,.25-.12,.52,.1,.6,3.71,1.42,9.57,4.02,14.3,7.06-5.47-2.15-12.27-3.58-16.36-4.27-.23-.04-.51,.16-.61,.43-.1,.28,0,.53,.24,.57,4.02,.68,10.5,2.11,15.89,4.23-5.88-1.61-13.27-2.24-17.61-2.43-.24-.01-.48,.22-.53,.5-.06,.29,.09,.53,.32,.54,4.58,.2,12.36,.96,18.37,2.8-1.85-.51-4.07-.92-6.77-1.13-6.34-.5-11.2-.02-13.14,.6-.75,.24-.65,.77-.65,.77,0,0,7.19-.96,14.37-.23,.09,0,.17,.02,.26,.03-.86-.08-1.76-.14-2.72-.19-7.89-.4-12.32,2.06-12.32,2.06l23.45,1.29c.37,1.51,1.77,2.64,3.44,2.64s3.07-1.13,3.44-2.64l23.45-1.29Z"/><path class="cls-2" d="M55.68,31.3h-23.4v1.23h0c-.16,1.36-1.73,2.9-3.49,2.9s-3.23-1.26-3.49-2.9c0,0,0,0,0,0-.03-.52,0-1.23,0-1.23H1.91c-1.06,0-1.91,.71-1.91,1.58v.18c0,.87,.86,1.58,1.91,1.58H24.51c.38,1.66,2.16,2.92,4.29,2.92s3.91-1.26,4.29-2.92h22.59c1.06,0,1.91-.71,1.91-1.58v-.18c0-.87-.86-1.58-1.91-1.58Z"/><g><rect class="cls-2" x="26.07" y="29.37" width="5.46" height="8.19"/><g class="cls-1"><path class="cls-2" d="M31.53,31.26h-2.25v-1.89h-.96v1.89h-2.25v.94h2.25v5.35h.96v-5.35h2.25v-.94Z"/></g></g></g><g><path class="cls-2" d="M76.57,34.99V2.58h6.79V34.99h-6.79Z"/><path class="cls-2" d="M110.68,30.11c4.09,0,6.93-2.05,8.53-6.16l5.9,2.24c-1.27,3.13-3.14,5.45-5.6,6.98-2.45,1.53-5.4,2.29-8.83,2.29-5.22,0-9.25-1.48-12.09-4.43-2.85-2.95-4.27-7.08-4.27-12.39s1.37-9.4,4.12-12.25c2.74-2.85,6.72-4.28,11.94-4.28,3.8,0,6.89,.76,9.28,2.29,2.4,1.53,4.08,3.77,5.04,6.72l-5.98,1.64c-.5-1.63-1.49-2.92-2.97-3.87-1.48-.96-3.23-1.44-5.23-1.44-3.07,0-5.4,.95-6.99,2.86-1.58,1.9-2.37,4.68-2.37,8.34s.81,6.57,2.44,8.53c1.64,1.96,4,2.94,7.09,2.94Z"/><path class="cls-2" d="M150.58,30.11c4.09,0,6.93-2.05,8.53-6.16l5.9,2.24c-1.27,3.13-3.14,5.45-5.6,6.98-2.45,1.53-5.4,2.29-8.83,2.29-5.22,0-9.25-1.48-12.09-4.43-2.85-2.95-4.27-7.08-4.27-12.39s1.37-9.4,4.12-12.25c2.74-2.85,6.72-4.28,11.94-4.28,3.8,0,6.89,.76,9.28,2.29,2.4,1.53,4.08,3.77,5.04,6.72l-5.98,1.64c-.5-1.63-1.49-2.92-2.97-3.87-1.48-.96-3.23-1.44-5.23-1.44-3.07,0-5.4,.95-6.99,2.86-1.58,1.9-2.37,4.68-2.37,8.34s.81,6.57,2.44,8.53c1.64,1.96,4,2.94,7.09,2.94Z"/><path class="cls-2" d="M201.99,12.84c0,2.08-.48,3.95-1.43,5.59-.95,1.65-2.3,2.92-4.08,3.82-1.77,.89-3.88,1.34-6.31,1.34h-8.05v11.41h-6.79V2.58h14.56c3.88,0,6.86,.9,8.95,2.68,2.1,1.78,3.15,4.31,3.15,7.58Zm-6.83,.11c0-3.4-2.01-5.1-6.02-5.1h-7.02v10.51h7.2c1.87,0,3.31-.46,4.32-1.39,1.02-.93,1.53-2.27,1.53-4.02Z"/></g><g><g><path class="cls-2" d="M220.18,16.72V8.01h1.85v8.71h-1.85Z"/><path class="cls-2" d="M232.92,16.72h-2.35l-3.79-6.59h-.05c.08,1.16,.11,1.99,.11,2.49v4.1h-1.65V8.01h2.33l3.78,6.52h.04c-.06-1.13-.09-1.93-.09-2.4v-4.12h1.66v8.71Z"/><path class="cls-2" d="M239.44,16.72h-1.85v-7.17h-2.37v-1.54h6.58v1.54h-2.36v7.17Z"/><path class="cls-2" d="M249.14,16.72h-5.02V8.01h5.02v1.51h-3.17v1.91h2.95v1.51h-2.95v2.25h3.17v1.53Z"/><path class="cls-2" d="M253.78,13.38v3.34h-1.85V8.01h2.54c1.18,0,2.06,.21,2.63,.65,.57,.43,.85,1.08,.85,1.96,0,.51-.14,.97-.42,1.37-.28,.4-.68,.71-1.2,.94,1.31,1.96,2.17,3.22,2.56,3.79h-2.05l-2.08-3.34h-.98Zm0-1.5h.6c.58,0,1.01-.1,1.29-.29,.28-.19,.42-.5,.42-.92s-.14-.71-.43-.88c-.28-.17-.72-.26-1.32-.26h-.56v2.35Z"/><path class="cls-2" d="M268.69,16.72h-2.35l-3.79-6.59h-.05c.07,1.16,.11,1.99,.11,2.49v4.1h-1.65V8.01h2.33l3.78,6.52h.04c-.06-1.13-.09-1.93-.09-2.4v-4.12h1.66v8.71Z"/><path class="cls-2" d="M277.19,16.72l-.63-2.07h-3.17l-.63,2.07h-1.99l3.07-8.75h2.26l3.08,8.75h-1.99Zm-1.07-3.62c-.58-1.88-.91-2.94-.99-3.19s-.13-.44-.16-.58c-.13,.51-.51,1.77-1.12,3.77h2.27Z"/><path class="cls-2" d="M284.61,16.72h-1.85v-7.17h-2.37v-1.54h6.58v1.54h-2.37v7.17Z"/><path class="cls-2" d="M289.29,16.72V8.01h1.85v8.71h-1.85Z"/><path class="cls-2" d="M302.21,12.35c0,1.44-.36,2.55-1.07,3.32-.71,.78-1.74,1.16-3.07,1.16s-2.36-.39-3.07-1.16c-.71-.77-1.07-1.89-1.07-3.34s.36-2.56,1.07-3.32,1.74-1.15,3.08-1.15,2.36,.38,3.07,1.16,1.06,1.88,1.06,3.32Zm-6.36,0c0,.97,.19,1.71,.55,2.2,.37,.49,.92,.74,1.66,.74,1.47,0,2.21-.98,2.21-2.94s-.73-2.94-2.2-2.94c-.74,0-1.29,.25-1.66,.74-.37,.49-.56,1.23-.56,2.2Z"/><path class="cls-2" d="M312.72,16.72h-2.35l-3.79-6.59h-.05c.07,1.16,.11,1.99,.11,2.49v4.1h-1.65V8.01h2.33l3.78,6.52h.04c-.06-1.13-.09-1.93-.09-2.4v-4.12h1.66v8.71Z"/><path class="cls-2" d="M321.22,16.72l-.63-2.07h-3.17l-.63,2.07h-1.99l3.07-8.75h2.26l3.08,8.75h-1.99Zm-1.07-3.62c-.58-1.88-.91-2.94-.99-3.19s-.13-.44-.16-.58c-.13,.51-.51,1.77-1.12,3.77h2.27Z"/><path class="cls-2" d="M325.28,16.72V8.01h1.85v7.18h3.53v1.53h-5.38Z"/><path class="cls-2" d="M340.99,9.42c-.7,0-1.23,.26-1.62,.78-.38,.52-.57,1.25-.57,2.18,0,1.94,.73,2.91,2.19,2.91,.61,0,1.35-.15,2.22-.46v1.55c-.71,.3-1.51,.45-2.39,.45-1.27,0-2.24-.38-2.91-1.15-.67-.77-1.01-1.87-1.01-3.31,0-.91,.16-1.7,.49-2.38,.33-.68,.8-1.2,1.42-1.57s1.34-.54,2.17-.54,1.7,.2,2.55,.61l-.6,1.5c-.32-.15-.65-.29-.98-.41s-.65-.17-.97-.17Z"/><path class="cls-2" d="M353.95,12.35c0,1.44-.36,2.55-1.07,3.32-.71,.78-1.74,1.16-3.07,1.16s-2.36-.39-3.07-1.16c-.71-.77-1.07-1.89-1.07-3.34s.36-2.56,1.07-3.32,1.74-1.15,3.08-1.15,2.36,.38,3.07,1.16,1.06,1.88,1.06,3.32Zm-6.36,0c0,.97,.19,1.71,.55,2.2,.37,.49,.92,.74,1.66,.74,1.47,0,2.21-.98,2.21-2.94s-.73-2.94-2.2-2.94c-.74,0-1.29,.25-1.66,.74-.37,.49-.56,1.23-.56,2.2Z"/><path class="cls-2" d="M362.06,16.72l-.63-2.07h-3.18l-.63,2.07h-1.99l3.07-8.75h2.26l3.09,8.75h-1.99Zm-1.07-3.62c-.58-1.88-.91-2.94-.99-3.19-.07-.25-.12-.44-.16-.58-.13,.51-.51,1.77-1.13,3.77h2.27Z"/><path class="cls-2" d="M366.12,16.72V8.01h1.85v7.18h3.53v1.53h-5.38Z"/><path class="cls-2" d="M373.99,16.72V8.01h1.85v8.71h-1.85Z"/><path class="cls-2" d="M382.37,16.72h-1.85v-7.17h-2.37v-1.54h6.58v1.54h-2.37v7.17Z"/><path class="cls-2" d="M387.05,16.72V8.01h1.85v8.71h-1.85Z"/><path class="cls-2" d="M399.97,12.35c0,1.44-.36,2.55-1.07,3.32-.71,.78-1.74,1.16-3.07,1.16s-2.36-.39-3.07-1.16c-.71-.77-1.07-1.89-1.07-3.34s.36-2.56,1.08-3.32,1.74-1.15,3.08-1.15,2.36,.38,3.07,1.16,1.06,1.88,1.06,3.32Zm-6.36,0c0,.97,.19,1.71,.55,2.2,.37,.49,.92,.74,1.66,.74,1.47,0,2.21-.98,2.21-2.94s-.73-2.94-2.2-2.94c-.73,0-1.29,.25-1.66,.74-.37,.49-.56,1.23-.56,2.2Z"/><path class="cls-2" d="M410.48,16.72h-2.35l-3.79-6.59h-.05c.07,1.16,.11,1.99,.11,2.49v4.1h-1.65V8.01h2.33l3.78,6.52h.04c-.06-1.13-.09-1.93-.09-2.4v-4.12h1.66v8.71Z"/></g><g><path class="cls-2" d="M229.16,26.57c0,1.58-.39,2.8-1.18,3.65-.79,.85-1.91,1.28-3.38,1.28s-2.59-.43-3.38-1.28c-.79-.85-1.18-2.07-1.18-3.66s.39-2.81,1.18-3.65,1.92-1.26,3.39-1.26,2.59,.42,3.37,1.27c.78,.85,1.17,2.06,1.17,3.65Zm-6.98,0c0,1.07,.2,1.87,.61,2.41,.4,.54,1.01,.81,1.82,.81,1.62,0,2.43-1.08,2.43-3.23s-.8-3.23-2.41-3.23c-.81,0-1.42,.27-1.83,.81s-.62,1.35-.62,2.42Z"/><path class="cls-2" d="M235.01,31.37h-2v-9.57h5.48v1.66h-3.49v2.47h3.25v1.66h-3.25v3.78Z"/><path class="cls-2" d="M251.67,23.35c-.76,0-1.35,.29-1.77,.86-.42,.57-.63,1.37-.63,2.4,0,2.13,.8,3.2,2.4,3.2,.67,0,1.48-.17,2.44-.5v1.7c-.79,.33-1.66,.49-2.63,.49-1.39,0-2.46-.42-3.19-1.27-.74-.84-1.11-2.06-1.11-3.63,0-1,.18-1.87,.54-2.61s.88-1.32,1.56-1.72,1.47-.6,2.38-.6,1.86,.22,2.8,.67l-.65,1.65c-.36-.17-.72-.32-1.08-.44-.36-.13-.72-.19-1.07-.19Z"/><path class="cls-2" d="M265.86,31.37h-2.02v-4.13h-3.79v4.13h-2.03v-9.57h2.03v3.75h3.79v-3.75h2.02v9.57Z"/><path class="cls-2" d="M272.18,27.7v3.67h-2.03v-9.57h2.79c1.3,0,2.26,.24,2.89,.71,.62,.47,.94,1.19,.94,2.16,0,.56-.16,1.06-.46,1.5-.31,.44-.75,.78-1.32,1.03,1.44,2.15,2.38,3.54,2.81,4.17h-2.25l-2.29-3.67h-1.08Zm0-1.65h.65c.64,0,1.11-.11,1.42-.32,.3-.21,.46-.55,.46-1.01s-.16-.78-.47-.97c-.31-.19-.79-.29-1.45-.29h-.62v2.58Z"/><path class="cls-2" d="M280.87,31.37v-9.57h2.03v9.57h-2.03Z"/><path class="cls-2" d="M292.83,28.71c0,.86-.31,1.54-.93,2.04-.62,.5-1.49,.75-2.59,.75-1.02,0-1.92-.19-2.71-.58v-1.88c.65,.29,1.19,.49,1.64,.61,.45,.12,.86,.18,1.23,.18,.45,0,.79-.08,1.03-.25,.24-.17,.36-.42,.36-.76,0-.19-.05-.35-.16-.5-.11-.15-.26-.29-.46-.42-.2-.14-.62-.35-1.24-.65-.58-.27-1.02-.54-1.31-.79-.29-.25-.53-.55-.7-.88s-.26-.73-.26-1.18c0-.85,.29-1.51,.86-2,.57-.48,1.37-.73,2.38-.73,.5,0,.97,.06,1.42,.18,.45,.12,.92,.28,1.42,.5l-.65,1.58c-.51-.21-.93-.36-1.27-.44s-.66-.12-.98-.12c-.38,0-.68,.09-.88,.27s-.31,.41-.31,.7c0,.18,.04,.33,.12,.47,.08,.13,.21,.26,.39,.39,.18,.12,.61,.35,1.29,.67,.89,.43,1.51,.86,1.84,1.29s.5,.96,.5,1.58Z"/><path class="cls-2" d="M300.13,31.37h-2.03v-7.88h-2.6v-1.69h7.22v1.69h-2.6v7.88Z"/><path class="cls-2" d="M306.08,31.37v-9.57h2.03v9.57h-2.03Z"/><path class="cls-2" d="M318.24,31.37l-.69-2.28h-3.49l-.69,2.28h-2.19l3.38-9.61h2.48l3.39,9.61h-2.19Zm-1.18-3.98c-.64-2.06-1-3.23-1.08-3.5s-.14-.48-.17-.64c-.14,.56-.56,1.94-1.24,4.14h2.49Z"/><path class="cls-2" d="M331.99,31.37h-2.58l-4.16-7.24h-.06c.08,1.28,.12,2.19,.12,2.73v4.5h-1.81v-9.57h2.56l4.15,7.16h.05c-.07-1.24-.1-2.12-.1-2.64v-4.53h1.83v9.57Z"/><path class="cls-2" d="M348.24,24.79c0,1.03-.32,1.82-.96,2.36-.64,.55-1.56,.82-2.75,.82h-.87v3.4h-2.03v-9.57h3.06c1.16,0,2.04,.25,2.65,.75,.6,.5,.91,1.24,.91,2.23Zm-4.58,1.52h.67c.62,0,1.09-.12,1.4-.37,.31-.25,.46-.61,.46-1.08s-.13-.83-.39-1.05-.67-.34-1.22-.34h-.92v2.84Z"/><path class="cls-2" d="M357.78,31.37l-.69-2.28h-3.49l-.69,2.28h-2.19l3.38-9.61h2.48l3.39,9.61h-2.19Zm-1.18-3.98c-.64-2.06-1-3.23-1.08-3.5-.08-.27-.14-.48-.17-.64-.14,.56-.56,1.94-1.24,4.14h2.49Z"/><path class="cls-2" d="M368.69,28.71c0,.86-.31,1.54-.93,2.04s-1.49,.75-2.59,.75c-1.02,0-1.92-.19-2.71-.58v-1.88c.64,.29,1.19,.49,1.64,.61,.45,.12,.86,.18,1.23,.18,.45,0,.79-.08,1.02-.25,.24-.17,.36-.42,.36-.76,0-.19-.05-.35-.16-.5-.1-.15-.26-.29-.46-.42-.2-.14-.62-.35-1.24-.65-.58-.27-1.02-.54-1.31-.79s-.53-.55-.7-.88c-.18-.34-.26-.73-.26-1.18,0-.85,.29-1.51,.86-2,.57-.48,1.37-.73,2.38-.73,.5,0,.97,.06,1.42,.18,.45,.12,.92,.28,1.42,.5l-.65,1.58c-.51-.21-.93-.36-1.27-.44-.33-.08-.66-.12-.99-.12-.38,0-.68,.09-.88,.27s-.31,.41-.31,.7c0,.18,.04,.33,.12,.47,.08,.13,.21,.26,.4,.39,.18,.12,.61,.35,1.29,.67,.89,.43,1.51,.86,1.84,1.29,.33,.43,.5,.96,.5,1.58Z"/><path class="cls-2" d="M375.99,31.37h-2.03v-7.88h-2.6v-1.69h7.22v1.69h-2.6v7.88Z"/><path class="cls-2" d="M390.62,26.57c0,1.58-.39,2.8-1.18,3.65-.79,.85-1.91,1.28-3.38,1.28s-2.59-.43-3.38-1.28c-.79-.85-1.18-2.07-1.18-3.66s.39-2.81,1.18-3.65c.79-.84,1.92-1.26,3.38-1.26s2.59,.42,3.37,1.27c.78,.85,1.17,2.06,1.17,3.65Zm-6.98,0c0,1.07,.2,1.87,.61,2.41s1.01,.81,1.82,.81c1.62,0,2.43-1.08,2.43-3.23s-.8-3.23-2.41-3.23c-.81,0-1.42,.27-1.82,.81-.41,.54-.62,1.35-.62,2.42Z"/><path class="cls-2" d="M396.51,27.7v3.67h-2.03v-9.57h2.79c1.3,0,2.26,.24,2.88,.71,.62,.47,.94,1.19,.94,2.16,0,.56-.15,1.06-.46,1.5-.31,.44-.75,.78-1.31,1.03,1.44,2.15,2.38,3.54,2.81,4.17h-2.25l-2.28-3.67h-1.08Zm0-1.65h.65c.64,0,1.12-.11,1.42-.32s.46-.55,.46-1.01-.16-.78-.47-.97c-.31-.19-.79-.29-1.45-.29h-.62v2.58Z"/><path class="cls-2" d="M410.85,28.71c0,.86-.31,1.54-.93,2.04-.62,.5-1.49,.75-2.59,.75-1.02,0-1.92-.19-2.71-.58v-1.88c.65,.29,1.19,.49,1.64,.61,.45,.12,.86,.18,1.23,.18,.45,0,.79-.08,1.03-.25,.24-.17,.36-.42,.36-.76,0-.19-.05-.35-.16-.5-.11-.15-.26-.29-.46-.42-.2-.14-.62-.35-1.24-.65-.58-.27-1.02-.54-1.31-.79-.29-.25-.53-.55-.7-.88s-.26-.73-.26-1.18c0-.85,.29-1.51,.86-2,.57-.48,1.37-.73,2.38-.73,.5,0,.97,.06,1.42,.18,.45,.12,.92,.28,1.42,.5l-.65,1.58c-.51-.21-.93-.36-1.27-.44s-.66-.12-.98-.12c-.38,0-.68,.09-.88,.27s-.31,.41-.31,.7c0,.18,.04,.33,.12,.47,.08,.13,.21,.26,.39,.39,.18,.12,.61,.35,1.29,.67,.89,.43,1.51,.86,1.84,1.29s.5,.96,.5,1.58Z"/></g></g></g></svg>