<?xml version="1.0" standalone="no"?>
<!DOCTYPE svg PUBLIC "-//W3C//DTD SVG 20010904//EN"
 "http://www.w3.org/TR/2001/REC-SVG-20010904/DTD/svg10.dtd">
<svg version="1.0" xmlns="http://www.w3.org/2000/svg"
 width="1520.000000pt" height="1520.000000pt" viewBox="0 0 1520.000000 1520.000000"
 preserveAspectRatio="xMidYMid meet">
<metadata>
Created by potrace 1.14, written by Peter Selinger 2001-2017
</metadata>
<g transform="translate(0.000000,1520.000000) scale(0.100000,-0.100000)"
fill="#000000" stroke="none">
<path d="M7378 12545 c-2 -2 -52 -6 -111 -10 -59 -3 -115 -8 -125 -10 -9 -1
-46 -6 -82 -10 -36 -3 -76 -8 -90 -10 -14 -2 -43 -6 -65 -10 -23 -3 -50 -7
-60 -9 -22 -4 -104 -19 -120 -21 -5 -1 -12 -3 -15 -4 -3 -2 -16 -4 -30 -6 -27
-4 -60 -11 -142 -31 -5 -1 -9 -2 -10 -4 -2 -1 -17 -3 -35 -5 -17 -2 -41 -9
-53 -15 -12 -6 -24 -9 -27 -6 -3 3 -18 -1 -33 -9 -15 -8 -30 -12 -32 -9 -3 2
-18 -1 -34 -8 -16 -6 -33 -13 -39 -13 -5 -1 -17 -5 -25 -8 -8 -3 -44 -15 -80
-26 -97 -29 -231 -77 -291 -104 -30 -13 -57 -25 -61 -26 -7 -1 -44 -17 -138
-58 -19 -8 -42 -19 -50 -24 -8 -5 -22 -12 -30 -15 -42 -15 -240 -117 -236
-121 2 -3 15 -6 28 -8 143 -19 174 -44 195 -160 3 -16 9 -38 14 -47 5 -10 7
-18 4 -18 -9 0 46 -104 69 -128 11 -13 32 -30 46 -37 27 -13 107 -15 128 -2 6
5 12 6 12 3 0 -3 12 -1 28 5 15 6 34 12 42 15 8 2 69 17 135 34 66 16 134 32
150 35 17 3 51 12 78 20 26 8 47 12 47 10 0 -2 18 2 40 10 22 8 43 14 45 14
14 -1 71 14 80 21 6 5 13 8 18 8 19 1 126 35 164 53 24 10 46 19 50 19 15 0
122 58 178 96 31 22 64 44 73 49 9 6 22 16 30 23 13 11 28 16 45 13 4 0 7 3 7
8 0 10 54 34 76 34 8 0 14 5 14 10 0 5 6 7 14 4 7 -3 18 -1 24 5 9 9 34 15 88
22 11 1 24 5 30 8 9 6 267 2 314 -4 14 -2 31 -7 38 -11 6 -5 12 -6 12 -3 0 2
24 -2 53 -10 28 -8 61 -17 72 -20 24 -7 162 -30 225 -38 25 -4 56 -8 70 -10
14 -2 52 -7 85 -11 32 -4 66 -8 75 -10 8 -1 37 -6 63 -9 108 -16 203 -43 259
-73 43 -24 57 -41 64 -82 4 -23 -31 -83 -76 -128 -42 -43 -140 -113 -158 -113
-6 0 -17 -6 -24 -13 -7 -7 -33 -21 -58 -32 -25 -10 -52 -24 -60 -31 -8 -6 -25
-15 -37 -18 -13 -4 -23 -11 -23 -16 0 -4 -11 -11 -25 -14 -42 -11 -177 -153
-209 -221 -16 -33 -29 -64 -30 -70 -1 -5 -4 -14 -7 -20 -11 -20 -10 -108 1
-156 16 -65 84 -138 165 -176 57 -26 67 -28 235 -30 96 -1 200 2 230 8 146 27
255 119 305 254 12 32 15 195 4 250 -8 45 -12 78 -24 208 -7 81 52 100 159 53
31 -14 60 -26 64 -28 7 -2 17 -10 62 -48 120 -101 207 -215 289 -379 49 -99
73 -136 115 -175 33 -31 101 -63 149 -71 104 -15 153 -32 178 -62 8 -10 33
-47 54 -83 21 -36 57 -85 80 -110 106 -117 152 -167 178 -193 15 -15 27 -29
27 -31 0 -3 13 -19 29 -36 27 -30 33 -51 19 -65 -3 -3 -57 6 -119 20 -202 45
-302 37 -376 -29 -30 -27 -65 -93 -67 -126 -1 -8 -4 -19 -7 -25 -7 -12 -3
-159 6 -200 3 -16 8 -60 11 -96 5 -54 3 -68 -11 -79 -19 -16 -75 -21 -75 -7 0
5 -6 4 -14 -2 -8 -7 -17 -8 -20 -3 -2 4 -29 6 -58 4 -101 -8 -373 -9 -383 -2
-5 4 -28 10 -50 14 -22 3 -65 12 -96 19 -143 35 -224 -1 -313 -138 -49 -75
-87 -136 -131 -210 -22 -37 -46 -73 -52 -80 -7 -7 -13 -16 -13 -19 0 -3 -30
-52 -67 -108 -38 -57 -71 -110 -76 -118 -4 -8 -21 -35 -37 -60 -16 -25 -37
-58 -46 -75 -9 -16 -42 -68 -72 -115 -31 -46 -64 -107 -75 -135 -24 -63 -29
-169 -12 -265 7 -42 12 -93 11 -115 -10 -170 -160 -60 -171 124 -2 36 -4 66
-5 66 -1 0 -3 15 -4 32 -4 39 -33 103 -55 121 -36 30 -98 52 -147 52 -47 0
-174 -23 -279 -50 -22 -6 -49 -13 -60 -15 -11 -3 -53 -21 -93 -41 -103 -50
-127 -88 -128 -203 -1 -47 -5 -142 -9 -211 -8 -136 -8 -172 0 -210 3 -14 8
-36 11 -50 9 -45 56 -115 98 -146 77 -59 140 -65 281 -30 68 17 131 20 139 7
8 -12 86 -29 166 -36 104 -10 134 -16 149 -30 11 -11 7 -19 -23 -51 -20 -21
-36 -34 -36 -29 0 6 -4 5 -8 -1 -4 -5 -49 -39 -99 -73 -51 -35 -93 -67 -93
-72 0 -5 -6 -9 -13 -9 -11 0 -51 -55 -52 -72 0 -3 -3 -9 -7 -13 -8 -8 19 -74
40 -98 43 -48 301 -199 364 -211 7 -2 20 -6 28 -9 37 -14 97 -30 123 -33 25
-3 30 1 48 44 52 125 120 214 175 228 13 3 24 11 24 17 0 6 3 8 6 4 3 -3 35 8
71 24 36 16 70 29 76 29 6 0 18 7 27 15 9 8 25 16 36 18 10 2 37 11 59 21 237
105 396 141 476 108 29 -11 92 -85 82 -96 -3 -3 -1 -6 5 -6 7 0 12 -7 12 -15
0 -8 5 -15 10 -15 6 0 10 -5 10 -11 0 -35 89 -77 179 -85 25 -3 62 -6 81 -8
19 -3 64 -7 100 -11 129 -13 162 -19 240 -41 80 -23 160 -68 214 -122 51 -50
106 -123 106 -141 0 -6 3 -11 8 -11 4 0 16 -18 26 -40 11 -22 21 -40 23 -40 3
0 47 20 99 45 52 25 97 46 101 46 5 0 15 7 23 14 8 7 20 14 25 15 13 2 71 29
211 96 60 29 122 56 137 59 15 4 27 11 27 16 0 5 4 9 10 9 5 0 33 11 62 24 29
13 76 34 103 46 28 12 75 34 105 48 30 14 64 27 75 29 11 2 21 8 23 13 2 6 8
10 13 10 11 0 236 94 328 137 30 14 59 26 65 27 6 1 18 6 26 11 8 5 20 10 25
11 6 1 24 8 40 15 17 7 32 13 35 14 13 4 50 20 98 41 29 13 55 24 58 24 3 0
20 6 37 14 18 7 52 21 77 31 25 10 64 27 87 37 23 10 46 18 51 18 5 0 11 8 14
18 9 37 -4 423 -17 532 -2 19 -7 64 -10 100 -3 36 -7 76 -10 90 -3 14 -7 43
-10 65 -3 22 -10 65 -15 95 -5 30 -12 71 -15 90 -3 19 -8 42 -10 50 -2 8 -6
26 -9 40 -3 20 -46 199 -62 260 -7 30 -41 145 -46 160 -3 8 -20 60 -37 115
-18 55 -36 109 -40 120 -5 11 -30 74 -56 140 -26 66 -70 167 -97 225 -27 58
-50 110 -51 115 -1 6 -4 12 -8 15 -3 3 -15 25 -28 50 -43 83 -83 154 -148 260
-82 135 -80 133 -130 206 -24 35 -43 67 -43 73 0 5 -4 11 -8 13 -5 2 -28 30
-52 63 -39 53 -161 208 -215 273 -93 111 -351 372 -471 477 -32 28 -66 58 -76
68 -10 9 -20 17 -23 17 -3 0 -18 11 -33 24 -15 14 -61 50 -102 82 -41 31 -77
59 -80 63 -11 13 -99 71 -109 71 -6 0 -11 4 -11 8 0 5 -12 15 -27 23 -16 8
-35 22 -44 31 -9 10 -24 18 -33 18 -9 0 -16 4 -16 8 0 5 -45 35 -100 68 -56
32 -115 68 -133 78 -34 20 -342 179 -342 176 0 -1 -31 12 -68 29 -38 17 -73
31 -78 31 -5 0 -9 5 -9 12 0 6 -3 9 -6 5 -3 -3 -29 4 -58 15 -99 40 -263 99
-311 112 -5 2 -23 8 -38 14 -16 7 -34 12 -40 12 -7 0 -31 7 -54 15 -22 8 -52
16 -65 19 -12 3 -32 7 -43 10 -11 3 -51 13 -90 22 -38 8 -77 18 -85 21 -8 3
-22 7 -30 8 -8 2 -55 10 -105 20 -49 9 -100 18 -112 20 -33 5 -103 16 -138 22
-16 3 -46 6 -65 8 -63 5 -164 16 -210 22 -48 6 -576 13 -582 8z"/>
<path d="M4314 10807 c-10 -6 -21 -13 -24 -17 -3 -3 -30 -25 -60 -47 -157
-116 -286 -141 -333 -65 l-14 24 -24 -33 c-12 -19 -26 -36 -29 -39 -3 -3 -31
-41 -61 -85 -30 -44 -57 -84 -62 -90 -17 -24 -127 -196 -127 -199 0 -3 -20
-38 -45 -80 -24 -42 -41 -76 -37 -76 4 0 2 -4 -4 -8 -10 -6 -157 -294 -159
-312 -1 -3 -8 -21 -17 -40 -8 -19 -25 -60 -38 -90 -12 -30 -29 -70 -37 -89 -8
-18 -16 -39 -18 -45 -1 -6 -5 -18 -8 -26 -21 -50 -65 -180 -61 -180 2 0 -5
-22 -16 -50 -11 -27 -18 -50 -15 -50 2 0 -2 -15 -10 -34 -8 -18 -16 -44 -19
-57 -3 -13 -16 -69 -30 -124 -24 -97 -49 -213 -61 -284 -3 -19 -7 -37 -9 -40
-2 -3 -7 -33 -11 -66 -3 -32 -8 -62 -10 -65 -2 -3 -6 -34 -9 -70 -4 -36 -9
-81 -11 -100 -21 -165 -30 -399 -24 -660 0 -10 24 -24 62 -39 34 -13 81 -31
104 -42 24 -10 45 -19 47 -19 2 0 21 -8 42 -17 22 -9 44 -18 49 -19 6 -1 33
-12 60 -25 28 -12 53 -23 57 -23 3 -1 10 -4 14 -9 4 -4 16 -7 26 -7 10 0 18
-4 18 -8 0 -5 6 -9 13 -9 9 -1 248 -101 362 -152 11 -5 49 -23 85 -39 36 -16
81 -36 100 -45 91 -40 142 -63 228 -103 52 -24 98 -44 103 -44 5 0 9 -4 9 -8
0 -5 6 -9 13 -9 6 0 41 -14 76 -32 36 -17 70 -31 78 -31 7 0 13 -4 13 -9 0 -5
10 -13 23 -16 12 -4 127 -59 255 -121 128 -63 237 -114 242 -114 5 0 10 -3 12
-7 2 -5 68 -41 148 -82 143 -72 175 -89 357 -187 141 -75 234 -126 316 -173
20 -11 52 -29 70 -39 66 -38 150 -88 175 -104 25 -16 41 -25 110 -61 12 -6 22
-15 22 -19 0 -5 4 -8 10 -8 9 0 323 -194 410 -254 25 -17 47 -29 49 -27 2 1 7
-2 10 -7 3 -5 49 -38 101 -74 125 -84 243 -170 252 -183 5 -6 8 -6 8 0 0 6 3
6 8 -1 4 -5 63 -53 132 -105 68 -52 132 -101 141 -109 9 -8 33 -29 55 -47 21
-17 49 -39 60 -50 48 -41 88 -68 98 -65 6 2 18 10 26 18 33 31 80 72 116 100
20 16 50 40 66 53 30 24 155 120 204 156 15 11 33 26 40 33 7 6 17 12 22 12 4
0 19 11 32 25 l23 25 -44 46 c-82 86 -89 93 -89 98 0 3 -20 32 -43 63 -51 68
-108 164 -126 213 -8 19 -20 52 -28 74 -25 68 -19 136 19 224 34 77 144 263
160 270 4 2 8 10 8 17 0 7 4 15 8 17 4 2 23 26 42 53 19 28 37 52 40 55 12 12
70 89 70 93 0 2 -32 26 -71 53 -98 67 -111 76 -133 96 -11 10 -26 18 -33 18
-7 0 -13 4 -13 9 0 5 -26 22 -57 37 -32 16 -61 33 -65 39 -4 5 -8 7 -8 3 0
-13 -85 63 -234 207 -159 154 -285 230 -414 251 -18 3 -50 13 -70 22 -20 8
-39 16 -42 16 -14 2 -100 52 -100 58 0 5 -6 8 -12 8 -11 0 -65 43 -261 206
-33 28 -228 154 -238 154 -5 0 -9 5 -9 10 0 6 -5 10 -12 10 -6 0 -25 11 -42
23 -17 13 -56 41 -86 61 -30 21 -89 73 -131 116 -78 81 -99 121 -99 195 0 44
-19 115 -32 115 -4 0 -8 6 -8 13 -1 17 -36 57 -51 57 -7 0 -10 3 -6 6 3 4 -20
25 -51 48 -80 58 -112 78 -112 69 0 -5 -5 -1 -10 7 -5 8 -13 15 -17 15 -4 1
-26 9 -48 19 -76 34 -130 54 -167 60 -15 3 -32 7 -38 11 -5 3 -10 1 -10 -5 0
-6 -4 -9 -8 -6 -5 3 -31 8 -58 12 -27 3 -55 11 -63 18 -8 6 -16 10 -17 9 -25
-17 -224 155 -224 193 0 7 -6 17 -12 21 -7 4 -20 22 -29 38 -23 43 -43 79 -49
85 -12 12 -70 99 -70 105 0 6 -13 23 -42 56 -10 10 -18 22 -18 26 0 4 -21 38
-47 77 -84 124 -115 181 -106 190 4 3 1 6 -5 6 -9 0 -23 41 -24 67 0 5 -4 13
-10 20 -14 17 -7 112 12 158 17 42 50 162 55 205 2 14 7 48 11 75 22 159 0
394 -44 464 -21 35 -94 111 -106 111 -5 0 -17 6 -25 13 -47 39 -186 66 -227
44z"/>
<path d="M2405 7463 c-69 -36 -111 -101 -107 -163 2 -24 42 -70 60 -70 8 0
146 -54 257 -100 18 -8 53 -21 65 -25 7 -2 47 -19 139 -57 42 -18 79 -33 84
-34 4 -1 10 -3 15 -4 4 -1 10 -2 15 -1 4 0 7 -3 7 -9 0 -5 9 -10 19 -10 11 0
23 -5 26 -10 4 -6 11 -8 16 -5 5 4 9 1 9 -5 0 -6 5 -8 10 -5 6 3 10 1 10 -4 0
-6 6 -11 13 -11 12 0 114 -41 222 -90 28 -12 66 -29 85 -37 19 -8 63 -28 98
-44 35 -16 65 -29 67 -29 3 0 33 -13 67 -30 34 -16 67 -30 73 -30 6 0 16 -5
23 -12 6 -6 17 -13 24 -14 13 -2 80 -33 328 -152 63 -30 121 -55 128 -55 6 0
12 -3 12 -7 0 -8 142 -75 153 -72 4 1 7 -3 7 -10 0 -6 3 -9 6 -5 3 3 29 -8 57
-25 29 -17 57 -31 62 -32 6 -1 30 -13 55 -26 25 -14 70 -36 100 -50 30 -14 57
-28 60 -31 3 -4 28 -17 55 -30 28 -12 52 -25 55 -28 3 -3 47 -26 97 -51 51
-25 93 -49 93 -53 0 -5 5 -5 10 -2 5 3 10 1 10 -5 0 -6 4 -9 9 -5 5 3 12 1 16
-5 3 -5 23 -17 43 -27 20 -9 87 -46 148 -80 62 -35 115 -63 119 -63 3 0 13 -7
22 -15 8 -8 19 -13 24 -10 5 4 9 2 9 -3 0 -6 19 -19 43 -31 75 -38 122 -66
125 -73 2 -5 10 -8 18 -8 8 0 14 -4 14 -10 0 -5 5 -10 10 -10 6 0 86 -46 178
-101 92 -56 177 -107 189 -113 13 -6 23 -14 23 -18 0 -5 7 -8 15 -8 8 0 15 -4
15 -10 0 -5 6 -10 13 -10 7 0 28 -14 47 -31 19 -17 28 -26 19 -20 -9 6 -33 17
-55 25 -21 8 -52 20 -69 27 -16 7 -32 13 -35 14 -3 1 -12 4 -20 7 -8 4 -40 14
-70 25 -30 10 -58 22 -61 26 -3 5 -9 8 -13 7 -6 -2 -41 8 -56 15 -3 1 -20 6
-37 10 -18 4 -33 11 -33 16 0 5 -7 6 -15 3 -8 -4 -15 -1 -15 7 0 7 -3 10 -6 7
-3 -4 -38 5 -77 19 -40 13 -76 26 -82 27 -5 2 -17 6 -25 9 -33 12 -242 79
-258 82 -9 2 -18 4 -19 5 -2 2 -6 3 -10 4 -11 2 -114 36 -133 43 -8 3 -24 8
-35 10 -11 2 -27 6 -35 10 -8 3 -21 5 -27 4 -7 -1 -13 2 -13 6 0 5 -12 10 -26
11 -14 1 -31 5 -37 9 -7 4 -16 8 -22 9 -18 3 -199 54 -225 64 -31 11 -410 112
-430 115 -8 1 -22 5 -30 7 -32 12 -96 29 -115 31 -11 1 -25 6 -31 10 -6 3 -26
9 -45 11 -19 3 -49 9 -67 15 -18 5 -33 10 -35 10 -1 -1 -14 2 -28 6 -14 3 -34
8 -45 10 -10 2 -19 4 -19 5 0 1 -13 4 -30 6 -16 3 -37 7 -45 10 -8 3 -17 6
-20 6 -7 2 -70 17 -95 24 -11 3 -29 7 -40 9 -11 2 -38 8 -60 14 -22 5 -51 12
-65 14 -14 3 -43 10 -65 15 -22 6 -52 14 -67 17 -16 3 -38 7 -50 10 -13 3 -32
7 -43 9 -11 2 -63 14 -115 25 -52 12 -111 24 -130 27 -19 3 -38 8 -41 10 -7 4
-69 15 -99 18 -9 1 -20 5 -25 8 -6 3 -26 7 -45 9 -19 2 -39 6 -45 9 -5 3 -23
7 -40 9 -37 3 -55 6 -75 14 -8 3 -33 8 -55 11 -22 2 -47 7 -55 10 -8 3 -31 8
-50 11 -19 3 -46 8 -60 11 -14 2 -32 6 -40 7 -8 2 -35 7 -60 11 -71 12 -85 14
-85 16 0 1 -11 3 -25 5 -47 5 -95 14 -180 30 -134 27 -162 27 -209 -1 -22 -14
-41 -29 -41 -34 0 -5 -7 -15 -15 -24 -18 -18 -36 -104 -24 -112 5 -3 7 -9 4
-14 -6 -10 37 -53 56 -56 20 -3 130 -23 159 -29 14 -3 39 -7 55 -10 17 -3 39
-7 50 -9 11 -2 45 -8 75 -12 59 -9 69 -10 73 -14 3 -2 37 -9 77 -14 19 -3 35
-5 35 -6 0 -2 24 -7 69 -15 21 -4 48 -9 60 -11 11 -3 35 -7 52 -9 17 -3 43 -9
57 -14 14 -5 27 -7 30 -4 3 3 12 1 19 -3 7 -5 24 -10 38 -12 34 -4 65 -10 65
-12 0 -2 76 -17 130 -25 11 -2 20 -4 20 -5 0 -2 9 -4 20 -5 11 -1 47 -10 80
-18 33 -9 74 -18 90 -21 58 -10 90 -17 105 -22 8 -3 26 -8 40 -10 14 -3 88
-20 166 -39 78 -19 152 -36 165 -39 13 -3 49 -12 79 -20 30 -8 56 -13 59 -11
2 3 9 1 15 -4 6 -5 25 -11 41 -14 17 -3 45 -10 64 -16 19 -6 37 -9 39 -6 3 3
10 1 16 -4 7 -6 23 -12 37 -14 14 -3 70 -17 125 -32 54 -14 106 -28 114 -30 8
-2 49 -13 90 -25 41 -11 84 -23 95 -25 11 -2 43 -11 70 -20 41 -12 244 -73
305 -90 116 -33 147 -43 160 -48 20 -8 192 -60 205 -63 11 -2 249 -81 275 -91
8 -4 17 -7 20 -8 85 -25 300 -102 322 -115 10 -5 24 -10 32 -10 7 0 31 -8 52
-17 22 -10 44 -18 49 -18 6 -1 27 -9 49 -18 21 -9 45 -17 52 -17 8 0 14 -4 14
-10 0 -13 -1 -13 -52 4 -24 8 -60 17 -82 20 -21 4 -43 9 -49 13 -5 3 -20 7
-31 9 -12 1 -59 12 -106 24 -47 12 -98 23 -115 26 -16 3 -37 7 -45 10 -8 3
-28 8 -45 11 -16 2 -43 8 -60 13 -16 5 -66 16 -110 24 -44 9 -91 19 -105 21
-14 3 -47 10 -75 15 -27 6 -61 12 -75 15 -14 3 -41 8 -60 11 -19 3 -43 8 -53
10 -10 3 -32 7 -50 10 -18 2 -43 6 -57 9 -26 5 -45 9 -140 25 -30 5 -68 12
-85 15 -16 3 -46 8 -65 11 -42 6 -73 11 -120 19 -19 3 -48 7 -65 10 -16 2 -41
6 -55 9 -14 3 -46 8 -70 11 -107 14 -146 18 -167 19 -13 1 -23 3 -23 6 0 3
-18 6 -40 7 -22 2 -52 5 -68 8 -37 8 -89 15 -137 19 -22 2 -40 4 -40 5 0 2
-20 4 -45 6 -25 2 -59 6 -75 9 -17 3 -61 8 -100 12 -38 4 -73 8 -77 11 -4 2
-34 6 -65 8 -32 3 -78 7 -103 10 -65 7 -127 14 -190 20 -30 3 -71 8 -90 10
-19 3 -65 7 -102 10 -36 2 -90 7 -120 10 -29 4 -78 8 -108 10 -30 2 -55 4 -55
5 0 1 -20 3 -45 5 -25 1 -85 6 -135 10 -49 4 -110 9 -135 10 -25 2 -83 6 -130
10 -155 12 -359 24 -490 30 -41 2 -75 4 -75 5 0 0 -46 2 -103 4 -99 3 -105 2
-141 -25 -59 -42 -88 -138 -59 -192 26 -50 39 -53 228 -62 90 -3 226 -12 350
-21 41 -3 102 -7 135 -9 138 -9 203 -14 260 -19 33 -3 92 -8 130 -11 39 -3 88
-7 110 -9 22 -3 69 -7 105 -11 36 -3 81 -8 100 -10 19 -2 67 -6 105 -10 39 -3
86 -8 105 -11 19 -3 53 -7 75 -9 22 -2 63 -6 90 -9 28 -3 75 -9 105 -12 30 -4
63 -8 72 -10 9 -1 48 -6 85 -9 37 -4 70 -9 73 -10 3 -2 37 -6 75 -10 39 -4 81
-8 95 -11 66 -11 89 -15 121 -19 49 -5 129 -16 164 -21 60 -9 120 -17 143 -18
12 -1 22 -4 22 -7 0 -4 10 -7 23 -7 20 1 77 -7 137 -19 14 -3 42 -5 62 -6 21
-1 38 -5 38 -8 0 -3 6 -6 13 -7 46 -5 134 -18 167 -25 8 -2 35 -7 60 -11 64
-10 85 -14 85 -16 0 -1 12 -3 28 -5 15 -2 51 -8 80 -14 28 -6 63 -13 77 -15
56 -10 382 -78 485 -102 61 -14 117 -26 125 -28 8 -2 29 -6 45 -10 17 -4 77
-19 135 -33 58 -14 112 -28 120 -31 19 -6 38 -11 70 -17 44 -7 175 -47 183
-55 5 -4 -22 0 -59 10 -38 10 -72 16 -76 14 -4 -3 -8 0 -8 6 0 6 -3 9 -7 7 -5
-3 -46 4 -93 14 -47 10 -98 21 -115 23 -16 3 -31 6 -32 7 -2 1 -11 2 -20 4
-10 1 -34 4 -53 8 -19 4 -49 9 -67 11 -17 2 -35 6 -40 9 -4 3 -30 8 -58 11
-27 3 -62 8 -77 11 -16 3 -40 7 -55 9 -16 2 -44 7 -63 10 -45 7 -274 35 -337
41 -26 3 -64 7 -83 10 -33 4 -104 11 -210 20 -25 3 -81 7 -125 10 -44 3 -102
8 -130 10 -50 4 -211 15 -315 20 -480 26 -1383 26 -1700 0 -25 -2 -88 -6 -140
-10 -52 -3 -111 -8 -130 -10 -19 -1 -71 -6 -114 -10 -43 -4 -87 -8 -97 -10
-10 -2 -46 -6 -81 -10 -35 -3 -76 -8 -91 -11 -15 -3 -44 -7 -65 -9 -20 -2 -47
-6 -58 -9 -12 -2 -38 -7 -58 -10 -20 -3 -53 -9 -73 -13 -21 -3 -48 -7 -60 -7
-13 -1 -23 -3 -23 -6 0 -3 -8 -6 -17 -7 -28 -2 -64 -10 -113 -23 -25 -7 -52
-13 -60 -14 -39 -5 -160 -48 -183 -66 -14 -11 -29 -20 -34 -20 -15 0 -53 -69
-59 -110 l-7 -41 39 5 c22 3 66 8 98 11 33 3 71 7 85 9 44 7 112 15 196 21 44
4 91 8 105 10 14 3 63 7 110 10 47 3 112 8 145 11 33 2 92 6 130 9 39 3 102 7
140 10 97 7 257 14 404 20 68 2 126 7 129 9 2 3 13 1 23 -5 11 -5 19 -6 19 -2
0 10 46 11 525 13 413 3 648 0 640 -8 -3 -3 -98 -6 -213 -8 -185 -2 -253 -4
-480 -19 -105 -6 -228 -18 -332 -31 -19 -2 -55 -6 -80 -9 -78 -9 -123 -16
-184 -26 -32 -6 -61 -8 -64 -5 -3 3 -10 2 -16 -3 -6 -5 -33 -11 -61 -15 -27
-3 -61 -8 -75 -12 -14 -3 -36 -7 -50 -9 -31 -5 -86 -17 -215 -45 -55 -12 -104
-22 -110 -24 -5 -1 -16 -5 -22 -9 -7 -5 -13 -6 -13 -3 0 2 -24 -2 -52 -10 -29
-8 -60 -16 -68 -18 -34 -9 -206 -58 -220 -63 -8 -4 -17 -7 -20 -8 -20 -4 -149
-47 -165 -54 -11 -5 -42 -17 -70 -26 -27 -9 -64 -23 -82 -31 -17 -8 -33 -14
-36 -14 -2 0 -26 -10 -53 -22 -27 -12 -52 -21 -56 -20 -5 1 -8 -2 -8 -6 0 -7
-16 -11 -57 -14 -7 -1 -13 -5 -13 -9 0 -4 -13 -4 -28 1 -16 4 -36 4 -45 -1
-10 -6 -18 -5 -22 1 -4 6 -10 8 -14 5 -5 -2 -23 -7 -42 -9 -57 -8 -93 -16
-114 -24 -159 -64 -262 -164 -303 -297 -28 -91 -7 -245 44 -327 31 -48 121
-136 149 -144 11 -4 22 -10 25 -13 7 -9 82 -41 105 -46 11 -2 20 -4 20 -6 0
-10 437 -12 3074 -15 2485 -2 3025 -5 3032 -16 5 -7 15 -35 24 -61 26 -80 82
-189 115 -227 8 -10 26 -32 40 -50 57 -75 238 -230 268 -230 7 0 12 -3 12 -7
0 -5 24 -19 53 -33 28 -14 55 -29 59 -35 4 -5 8 -6 8 -1 0 5 6 4 13 -2 6 -6
17 -11 22 -12 6 -1 21 -7 35 -12 70 -28 200 -61 290 -75 68 -10 318 -11 385
-1 72 11 170 34 250 59 22 7 43 12 48 11 4 -1 7 2 7 8 0 5 9 10 20 10 11 0 20
5 20 11 0 5 4 8 9 4 5 -3 12 -1 16 5 3 5 15 10 26 10 10 0 19 4 19 9 0 5 10
13 23 17 12 4 41 20 64 35 23 16 46 29 51 29 6 0 12 4 14 8 2 4 23 23 47 42
85 67 231 237 231 269 0 6 4 11 9 11 10 0 37 69 33 83 -1 4 2 7 7 7 5 0 17 28
27 61 10 34 24 63 30 66 6 2 1370 5 3030 6 1660 2 3028 6 3040 9 11 3 41 12
65 19 60 18 151 72 197 117 32 32 74 87 78 102 0 3 9 23 19 45 24 52 28 190 9
263 -17 64 -70 147 -120 187 -20 17 -41 35 -48 40 -6 6 -24 17 -41 25 -16 8
-33 19 -37 25 -4 5 -8 6 -8 1 0 -5 -7 -3 -15 4 -8 7 -15 9 -15 6 0 -4 -9 -2
-21 4 -11 7 -32 14 -45 16 -13 2 -36 6 -51 9 -16 3 -63 5 -107 6 -68 1 -93 7
-190 45 -61 25 -124 51 -141 59 -37 17 -331 115 -364 121 -13 3 -32 9 -42 15
-10 5 -22 8 -26 8 -4 -1 -15 0 -23 4 -16 6 -68 18 -72 16 -2 0 -15 4 -31 10
-15 6 -38 13 -50 15 -12 3 -32 7 -44 10 -56 14 -70 17 -102 21 -18 3 -37 8
-43 11 -5 3 -19 7 -31 9 -12 2 -47 8 -77 14 -30 6 -68 14 -85 17 -16 2 -77 13
-135 24 -100 18 -145 24 -235 35 -22 3 -53 7 -70 9 -63 11 -130 18 -295 31
-36 3 -83 7 -105 10 -79 8 -343 18 -517 19 -98 1 -178 4 -178 8 0 8 198 11
630 9 432 -3 512 -5 528 -14 7 -5 12 -3 12 3 0 6 4 9 9 6 5 -3 71 -8 147 -11
77 -3 175 -7 219 -10 149 -8 290 -16 335 -20 24 -2 87 -7 140 -10 52 -4 109
-9 125 -11 17 -2 66 -6 110 -9 44 -3 96 -7 115 -10 19 -2 60 -7 90 -10 76 -7
132 -14 220 -25 42 -5 79 -5 84 0 16 16 -4 80 -37 117 -27 30 -91 69 -132 79
-5 2 -35 10 -65 19 -30 9 -64 18 -75 20 -11 2 -51 11 -90 20 -80 18 -164 34
-215 41 -19 2 -46 6 -60 9 -14 3 -43 7 -65 11 -22 3 -50 7 -63 9 -13 2 -53 7
-90 10 -37 4 -78 8 -92 11 -14 2 -54 6 -90 9 -36 3 -83 8 -105 10 -38 4 -132
11 -260 20 -411 26 -1305 27 -1715 0 -25 -1 -92 -6 -150 -9 -185 -11 -337 -23
-430 -32 -168 -16 -246 -24 -295 -30 -22 -3 -60 -7 -85 -9 -25 -3 -63 -8 -85
-11 -22 -4 -53 -9 -70 -10 -108 -13 -170 -22 -170 -24 0 -1 -11 -3 -25 -5 -61
-8 -117 -16 -140 -21 -29 -7 -50 -11 -102 -18 -21 -3 -59 -11 -85 -17 -27 -6
-57 -12 -68 -14 -38 -5 -90 -16 -107 -21 -9 -3 -27 -7 -40 -9 -33 -7 -150 -35
-168 -41 -10 -3 -12 -2 -5 5 6 5 28 14 50 20 41 10 108 28 135 36 50 15 90 22
94 17 4 -3 6 0 6 6 0 6 8 11 18 11 9 0 24 1 32 4 8 2 32 7 53 12 20 4 40 11
43 16 3 5 9 7 13 5 4 -3 31 1 59 8 28 8 53 11 56 8 3 -3 6 0 6 7 0 7 3 10 8 8
4 -3 74 10 156 29 82 18 165 36 184 39 19 3 37 7 41 9 3 2 22 7 41 10 19 3 67
12 105 20 39 8 88 17 110 20 22 4 56 11 75 15 19 5 42 9 50 9 8 0 62 10 120
21 58 12 123 23 145 25 22 2 40 5 40 6 0 5 108 21 158 24 15 0 27 3 27 6 0 4
10 6 23 7 12 0 38 4 57 7 35 7 87 15 145 21 17 2 30 4 30 5 0 1 14 3 31 5 31
3 156 21 224 31 19 3 46 7 60 9 53 6 136 16 160 20 14 2 48 7 76 10 28 3 60 7
73 10 12 2 53 7 91 10 38 3 77 8 87 9 10 2 47 7 83 10 36 4 81 9 100 11 19 2
60 7 90 10 30 3 75 8 100 10 25 3 68 7 95 9 28 3 82 8 120 12 39 4 94 8 123 8
28 1 52 3 52 6 0 4 57 9 182 14 21 0 38 3 38 6 0 8 55 4 68 -4 7 -4 12 -3 12
2 0 5 24 10 53 11 88 4 172 10 172 11 0 1 36 3 80 5 44 2 127 7 185 10 58 3
127 7 153 8 81 4 116 53 102 144 -5 35 -16 56 -47 87 l-40 41 -86 -1 c-48 0
-150 -4 -227 -8 -138 -7 -178 -10 -345 -21 -318 -21 -344 -23 -525 -40 -33 -4
-89 -8 -123 -10 -35 -3 -85 -7 -110 -10 -26 -2 -74 -7 -107 -10 -33 -3 -80 -8
-105 -10 -70 -8 -131 -15 -180 -19 -61 -6 -150 -17 -180 -22 -37 -6 -160 -17
-200 -18 -19 -1 -37 -4 -40 -7 -3 -4 -36 -10 -75 -14 -114 -11 -139 -14 -165
-19 -14 -2 -52 -8 -85 -11 -33 -4 -69 -9 -80 -10 -11 -2 -42 -6 -70 -10 -27
-3 -57 -8 -65 -10 -8 -2 -37 -7 -65 -10 -52 -7 -80 -11 -130 -21 -16 -3 -43
-7 -60 -9 -52 -6 -109 -16 -125 -21 -8 -3 -39 -8 -68 -10 -30 -2 -59 -7 -65
-11 -6 -3 -24 -7 -41 -8 -17 -1 -56 -7 -86 -13 -30 -6 -68 -13 -85 -16 -28 -5
-102 -18 -170 -31 -30 -6 -298 -61 -345 -71 -14 -3 -36 -7 -50 -10 -14 -3 -50
-11 -80 -19 -30 -7 -68 -16 -85 -19 -35 -6 -58 -11 -102 -25 -17 -5 -34 -7
-37 -3 -3 3 -6 0 -6 -7 0 -7 -4 -9 -10 -6 -5 3 -40 -3 -77 -14 -86 -25 -123
-32 -123 -21 0 7 12 11 63 25 4 2 9 4 12 5 3 1 8 3 13 4 4 2 18 7 32 14 46 20
560 199 593 206 7 2 20 6 29 10 9 4 22 8 30 10 7 1 18 4 23 8 6 3 26 9 45 14
45 10 40 9 75 23 16 7 59 20 95 31 36 10 89 26 119 35 30 9 62 19 70 21 16 3
299 87 355 104 15 5 31 9 35 8 3 -1 13 2 21 5 35 14 120 35 120 30 0 -3 6 -1
13 5 10 8 34 15 92 28 6 1 48 12 95 24 47 12 90 23 95 24 6 2 30 8 55 15 25 7
54 15 65 17 35 7 59 13 93 23 17 5 32 8 32 6 0 -2 15 2 34 10 18 8 36 12 39 9
3 -3 12 -2 19 2 14 9 15 9 73 19 22 4 43 9 46 10 5 4 338 82 384 91 17 3 48
10 88 20 4 1 8 3 10 4 1 1 13 3 27 4 14 2 36 7 50 11 14 5 39 9 55 11 17 1 37
4 45 8 20 7 108 26 117 25 5 -1 11 0 16 1 23 8 157 36 216 46 18 3 43 8 55 10
11 2 37 7 56 10 19 3 39 8 44 11 5 3 25 8 45 10 42 4 62 7 116 18 22 4 49 9
60 11 80 15 136 25 170 30 22 3 49 11 60 17 24 12 45 39 39 49 -2 4 0 9 5 12
12 8 4 62 -16 103 -8 18 -31 45 -51 60 -45 34 -77 35 -222 9 -14 -3 -41 -7
-60 -10 -53 -9 -116 -20 -225 -41 -16 -4 -41 -8 -55 -10 -14 -2 -36 -7 -50
-10 -14 -4 -41 -8 -60 -10 -19 -2 -35 -4 -35 -5 0 -1 -12 -4 -65 -14 -14 -2
-25 -5 -25 -6 0 -1 -9 -3 -20 -5 -11 -2 -36 -6 -55 -10 -19 -3 -44 -8 -55 -10
-11 -2 -76 -15 -145 -30 -69 -15 -134 -28 -145 -30 -11 -1 -42 -8 -70 -15 -27
-6 -61 -14 -75 -16 -44 -8 -163 -35 -219 -51 -29 -8 -59 -12 -67 -9 -7 3 -16
1 -19 -4 -4 -7 -39 -16 -100 -26 -5 -1 -12 -3 -15 -4 -3 -1 -12 -3 -20 -5 -8
-2 -26 -7 -40 -10 -14 -4 -35 -7 -47 -8 -13 -1 -23 -5 -23 -9 0 -4 -3 -7 -7
-7 -17 4 -94 -14 -99 -22 -3 -5 -9 -7 -13 -5 -8 5 -26 1 -201 -44 -47 -12 -93
-24 -103 -26 -10 -2 -27 -6 -37 -9 -10 -3 -27 -8 -37 -10 -10 -2 -43 -11 -73
-19 -30 -8 -140 -38 -245 -66 -104 -28 -197 -54 -205 -57 -8 -3 -19 -5 -23 -4
-4 0 -20 -5 -36 -14 -16 -8 -31 -12 -34 -9 -3 3 -12 2 -19 -2 -7 -5 -15 -9
-18 -10 -3 0 -25 -6 -50 -14 -25 -7 -51 -13 -57 -13 -7 0 -13 -3 -13 -7 0 -3
-8 -6 -17 -7 -19 -2 -331 -99 -528 -165 -66 -22 -124 -41 -130 -43 -5 -1 -17
-5 -25 -8 -30 -13 -185 -68 -202 -72 -9 -2 -25 -8 -36 -14 -11 -6 -22 -7 -26
-4 -3 3 -6 1 -6 -6 0 -6 -6 -11 -12 -10 -7 2 -29 -4 -48 -13 -19 -8 -53 -21
-75 -28 -22 -7 -52 -19 -67 -27 -16 -7 -28 -11 -28 -8 0 7 132 93 170 111 8 4
17 10 20 13 9 11 44 31 73 42 15 6 27 15 27 20 0 5 4 9 8 9 5 0 69 37 143 81
74 45 140 82 147 82 6 0 12 3 12 6 0 3 21 17 48 31 26 13 49 27 52 30 3 3 21
14 40 23 19 10 42 22 50 27 16 11 123 70 212 118 31 17 59 28 62 25 3 -4 6 -2
6 4 0 6 21 21 48 33 26 12 49 25 52 29 5 7 52 29 60 28 3 0 23 11 45 24 22 13
121 65 220 114 99 50 183 94 186 98 3 5 8 8 10 8 10 -3 69 24 69 31 0 4 7 8
15 8 14 0 95 38 105 49 3 4 10 7 15 8 6 1 66 28 135 61 280 134 359 170 364
164 3 -3 6 0 6 6 0 7 9 12 20 12 11 0 20 5 20 10 0 6 5 10 12 10 10 0 166 67
373 160 23 10 47 20 55 22 8 2 17 5 20 8 3 3 25 14 50 24 25 10 61 26 80 34
19 9 37 17 40 17 3 1 22 9 44 18 21 9 41 17 43 17 4 0 123 50 168 70 11 5 112
46 224 90 112 44 213 87 223 97 24 22 24 89 -1 129 -34 56 -86 88 -145 88 -29
1 -64 -4 -77 -11 -22 -11 -342 -140 -364 -147 -20 -6 -51 -18 -95 -38 -25 -11
-49 -21 -55 -22 -5 -1 -14 -4 -20 -7 -5 -4 -27 -12 -47 -18 -21 -7 -38 -17
-38 -22 0 -6 -4 -8 -8 -5 -4 2 -21 -1 -37 -9 -63 -29 -390 -167 -400 -168 -5
-1 -16 -8 -23 -14 -7 -7 -22 -13 -32 -13 -10 0 -22 -4 -25 -10 -3 -5 -15 -10
-26 -10 -10 0 -19 -5 -19 -10 0 -6 -3 -9 -7 -8 -9 1 -26 -5 -123 -50 -36 -16
-86 -39 -112 -51 -27 -11 -69 -31 -95 -43 -27 -12 -51 -21 -55 -20 -5 1 -8 -2
-8 -8 0 -5 -6 -10 -14 -10 -8 0 -36 -11 -63 -24 -84 -42 -168 -79 -175 -78 -5
1 -8 -2 -8 -8 0 -5 -9 -10 -20 -10 -11 0 -20 -4 -20 -10 0 -5 -6 -10 -13 -10
-19 0 -897 -440 -932 -467 -6 -4 -33 -19 -60 -33 -28 -14 -53 -29 -57 -35 -4
-5 -8 -6 -8 -1 0 5 -8 3 -17 -5 -10 -8 -27 -19 -38 -25 -11 -6 -56 -30 -100
-54 -44 -23 -87 -49 -96 -56 -8 -8 -18 -14 -22 -14 -3 0 -30 -14 -59 -31 -29
-18 -68 -40 -85 -50 -150 -86 -257 -152 -265 -163 -4 -6 -8 -7 -8 -2 0 5 -8 2
-17 -6 -10 -8 -67 -46 -128 -83 -60 -38 -111 -72 -113 -77 -2 -4 -8 -8 -13 -8
-8 0 -287 -186 -299 -199 -9 -10 -69 -51 -75 -51 -3 0 -13 -7 -22 -16 -48 -42
-89 -74 -96 -74 -5 0 -14 -6 -22 -12 -7 -7 -26 -23 -41 -35 -197 -153 -326
-260 -417 -345 -34 -33 -40 -35 -44 -19 -4 16 -17 18 -129 19 -118 1 -124 0
-124 -19 0 -17 -2 -18 -13 -7 -8 7 -33 29 -57 48 -24 19 -53 44 -64 56 -12 12
-64 56 -116 98 -52 43 -104 85 -115 94 -65 53 -187 142 -196 142 -6 0 -7 5 -4
10 3 6 0 10 -7 10 -7 0 -29 14 -48 30 -19 16 -38 30 -42 30 -5 0 -16 8 -26 18
-18 17 -338 234 -357 241 -5 2 -12 7 -15 11 -9 12 -397 250 -409 250 -6 0 -11
5 -11 10 0 6 -7 10 -15 10 -8 0 -15 4 -15 9 0 5 -9 13 -20 16 -11 4 -80 42
-154 85 -73 43 -143 81 -155 85 -11 3 -21 10 -21 14 0 4 -16 13 -35 20 -19 7
-35 17 -35 22 0 6 -4 7 -10 4 -5 -3 -10 -1 -10 5 0 6 -4 9 -9 6 -5 -4 -11 -3
-13 1 -3 8 -38 28 -123 71 -27 13 -56 30 -64 35 -7 6 -19 12 -25 13 -7 1 -31
13 -52 27 -37 23 -786 396 -919 458 -144 66 -196 89 -203 89 -4 0 -14 6 -20
13 -7 6 -16 12 -20 13 -4 0 -23 7 -42 16 -19 8 -75 34 -125 56 -49 22 -119 53
-155 69 -36 16 -96 43 -135 58 -38 16 -73 34 -77 40 -4 5 -8 7 -8 3 0 -6 -41
11 -165 67 -16 7 -52 22 -80 33 -27 11 -68 28 -90 38 -22 10 -42 18 -45 19 -3
0 -11 4 -17 8 -7 5 -13 6 -13 2 0 -3 -20 6 -45 19 -25 14 -45 23 -45 20 0 -4
-11 1 -25 10 -14 9 -25 14 -25 12 0 -3 -24 5 -52 18 -68 29 -91 38 -103 42 -5
1 -23 8 -40 15 -16 7 -32 13 -35 14 -3 1 -21 8 -40 17 -19 8 -53 21 -75 28
-22 7 -44 16 -50 20 -19 13 -108 40 -134 40 -14 -1 -39 -8 -56 -17z m7015
-2315 c0 -6 -3 -8 -6 -5 -4 3 -16 2 -28 -4 -20 -10 -20 -10 -2 5 24 19 36 20
36 4z m-3575 -16 c-3 -3 -11 0 -18 7 -9 10 -8 11 6 5 10 -3 15 -9 12 -12z
m-2341 -330 c3 -5 -1 -9 -9 -9 -8 0 -12 4 -9 9 3 4 7 8 9 8 2 0 6 -4 9 -8z
m40 0 c3 -5 -1 -9 -9 -9 -8 0 -12 4 -9 9 3 4 7 8 9 8 2 0 6 -4 9 -8z m8260 -2
c-8 -7 -63 -7 -58 1 2 4 17 6 33 5 16 0 27 -3 25 -6z m-8127 -6 c-3 -3 -12 -4
-19 -1 -8 3 -5 6 6 6 11 1 17 -2 13 -5z m7920 0 c-3 -3 -12 -4 -19 -1 -8 3 -5
6 6 6 11 1 17 -2 13 -5z m-7754 -11 c-7 -2 -19 -2 -25 0 -7 3 -2 5 12 5 14 0
19 -2 13 -5z m7467 -3 c0 -5 -5 -10 -11 -10 -5 0 -7 5 -4 10 3 6 8 10 11 10 2
0 4 -4 4 -10z"/>
</g>
</svg>
